<svg width="77" height="76" fill="none" xmlns="http://www.w3.org/2000/svg"><g clip-path="url(#clip0_5_3)"><g clip-path="url(#clip1_5_3)"><path opacity=".06" d="M55.979 0H22.02C10.411 0 1 9.412 1 21.021V54.98C1 66.589 10.412 76 22.021 76H55.98C67.589 76 77 66.588 77 54.979V21.02C77 9.411 67.588 0 55.979 0z" fill="#F6CA4F"/><path d="M39 63.879c14.292 0 25.88-11.587 25.88-25.879 0-14.292-11.587-25.879-25.879-25.879-14.292 0-25.879 11.587-25.879 25.88 0 14.291 11.587 25.878 25.88 25.878z" fill="#FF6D35"/><path d="M48.55 49.673h-19.1a4.257 4.257 0 01-4.245-4.245V30.572a4.257 4.257 0 014.245-4.245h19.1a4.257 4.257 0 014.245 4.245v14.856a4.257 4.257 0 01-4.245 4.245z" stroke="#fff" stroke-width="2" stroke-miterlimit="10" stroke-linecap="round" stroke-linejoin="round"/><path d="M25.205 31.633L39 40.123l13.795-8.49" stroke="#fff" stroke-width="2" stroke-miterlimit="10" stroke-linecap="round" stroke-linejoin="round"/></g></g><defs><clipPath id="clip0_5_3"><path fill="#fff" transform="translate(.719 .266)" d="M0 0h75.594v75.594H0z"/></clipPath><clipPath id="clip1_5_3"><path fill="#fff" transform="translate(1)" d="M0 0h76v76H0z"/></clipPath></defs></svg>