<svg width="164" height="46" viewBox="0 0 164 46" fill="none" xmlns="http://www.w3.org/2000/svg">
<path d="M52.8865 33.8316C50.5298 33.8316 48.4466 33.3567 46.6369 32.4079C44.8267 31.4371 43.4276 30.0673 42.4385 28.2989C41.4499 26.5302 40.9554 24.4487 40.9554 22.0545C40.9554 19.6603 41.4499 17.5789 42.4385 15.8102C43.4276 14.0199 44.8267 12.6503 46.6369 11.7012C48.4466 10.7305 50.5298 10.2452 52.8865 10.2452C54.4862 10.2452 55.8958 10.4178 57.1165 10.7629C58.3581 11.0864 59.4942 11.6041 60.5253 12.3159V17.0072C59.5997 16.2308 58.5371 15.67 57.3375 15.3248C56.1589 14.9582 54.8122 14.7748 53.2971 14.7748C51.8875 14.7748 50.6138 15.0768 49.4777 15.6807C48.3626 16.2631 47.4785 17.1043 46.8265 18.2043C46.1739 19.3044 45.8479 20.5877 45.8479 22.0545C45.8479 23.5428 46.1424 24.8477 46.7314 25.9694C47.342 27.0694 48.1941 27.9214 49.2882 28.5253C50.3823 29.1293 51.6454 29.4313 53.0761 29.4313C54.3807 29.4313 55.5168 29.194 56.4849 28.7195V24.3516H52.918V20.728H61.1248V31.6314C59.0416 33.098 56.2959 33.8316 52.8865 33.8316Z" fill="#81818B"/>
<path d="M62.2331 17.8161H66.8415V20.0486C67.4521 19.2936 68.3042 18.722 69.3983 18.3338C70.4924 17.924 71.7345 17.7191 73.1232 17.7191V21.4398C71.671 21.4398 70.3874 21.6663 69.2723 22.1192C68.1777 22.5722 67.4201 23.2624 66.9996 24.1899V33.3463H62.2331V17.8161Z" fill="#81818B"/>
<path d="M82.2829 33.8316C79.3786 33.8316 77.0954 33.1195 75.4332 31.6958C73.7705 30.2511 72.9395 28.2342 72.9395 25.6458C72.9395 23.079 73.676 21.0515 75.1492 19.5633C76.6433 18.0749 78.7685 17.3308 81.5253 17.3308C83.335 17.3308 84.8706 17.6759 86.1338 18.3661C87.3959 19.0563 88.354 20.0162 89.006 21.2456C89.6586 22.4535 89.9846 23.8232 89.9846 25.3546V27.3282H77.4849C77.8214 29.3127 79.6311 30.305 82.9139 30.305C83.882 30.305 84.8816 30.2187 85.9127 30.0459C86.9438 29.8734 87.8384 29.6361 88.596 29.3342V32.764C87.8594 33.0871 86.9123 33.3462 85.7547 33.5405C84.5976 33.7342 83.44 33.8316 82.2829 33.8316ZM85.4707 24.1575C85.4077 23.1222 85.0286 22.3241 84.3346 21.7633C83.64 21.181 82.6824 20.8897 81.4618 20.8897C80.2627 20.8897 79.3156 21.181 78.621 21.7633C77.9269 22.3457 77.5479 23.1438 77.4849 24.1575H85.4707Z" fill="#81818B"/>
<path d="M99.7543 33.8316C96.8505 33.8316 94.5673 33.1195 92.9046 31.6958C91.2425 30.2511 90.4109 28.2342 90.4109 25.6458C90.4109 23.079 91.1475 21.0515 92.6206 19.5633C94.1148 18.0749 96.24 17.3308 98.9967 17.3308C100.806 17.3308 102.343 17.6759 103.606 18.3661C104.868 19.0563 105.825 20.0162 106.477 21.2456C107.13 22.4535 107.456 23.8232 107.456 25.3546V27.3282H94.9563C95.2929 29.3127 97.1031 30.305 100.386 30.305C101.354 30.305 102.354 30.2187 103.384 30.0459C104.415 29.8734 105.31 29.6361 106.067 29.3342V32.764C105.331 33.0871 104.384 33.3462 103.227 33.5405C102.069 33.7342 100.912 33.8316 99.7543 33.8316ZM102.943 24.1575C102.879 23.1222 102.501 22.3241 101.807 21.7633C101.111 21.181 100.154 20.8897 98.9337 20.8897C97.7341 20.8897 96.7875 21.181 96.093 21.7633C95.3984 22.3457 95.0199 23.1438 94.9563 24.1575H102.943Z" fill="#81818B"/>
<path d="M108.515 17.8161H113.122V19.725C113.818 18.927 114.638 18.3338 115.585 17.9455C116.553 17.5357 117.563 17.3308 118.615 17.3308C120.678 17.3308 122.214 17.9024 123.223 19.0456C124.255 20.1672 124.771 21.6878 124.771 23.6075V33.3462H120.004V24.1575C120.004 22.1516 119.099 21.1486 117.289 21.1486C116.49 21.1486 115.743 21.3535 115.048 21.7633C114.354 22.1516 113.765 22.734 113.28 23.5104V33.3462H108.515V17.8161Z" fill="#81818B"/>
<path d="M128.975 15.4219C128.239 15.4219 127.619 15.1739 127.114 14.6777C126.608 14.1817 126.356 13.5561 126.356 12.8012C126.356 12.0679 126.608 11.4531 127.114 10.957C127.619 10.4394 128.239 10.1805 128.975 10.1805C129.712 10.1805 130.333 10.4394 130.838 10.957C131.343 11.4531 131.596 12.0679 131.596 12.8012C131.596 13.5561 131.343 14.1817 130.838 14.6777C130.333 15.1739 129.712 15.4219 128.975 15.4219ZM126.577 17.8161H131.375V33.3462H126.577V17.8161Z" fill="#81818B"/>
<path d="M139.504 33.8316C138.368 33.8316 137.147 33.7018 135.842 33.4431C134.559 33.2059 133.549 32.8608 132.812 32.4079V28.5901C133.654 29.1077 134.664 29.5283 135.842 29.8518C137.021 30.1752 138.115 30.337 139.125 30.337C139.988 30.337 140.619 30.2616 141.019 30.1108C141.418 29.9597 141.618 29.6793 141.618 29.2695C141.618 28.946 141.503 28.6871 141.271 28.493C141.04 28.2773 140.682 28.0939 140.198 27.943C139.735 27.7704 138.956 27.5224 137.862 27.1988C136.579 26.8106 135.568 26.4223 134.832 26.0341C134.117 25.6242 133.57 25.1174 133.191 24.5134C132.833 23.9095 132.654 23.1329 132.654 22.1839C132.654 20.5662 133.274 19.3583 134.517 18.5603C135.779 17.7406 137.483 17.3308 139.63 17.3308C140.682 17.3308 141.766 17.4494 142.881 17.6867C144.017 17.9024 144.891 18.1936 145.501 18.5603V22.281C144.891 21.8712 144.091 21.5368 143.102 21.278C142.134 21.0192 141.187 20.8897 140.261 20.8897C139.398 20.8897 138.725 20.976 138.241 21.1486C137.778 21.3212 137.546 21.6447 137.546 22.1192C137.546 22.529 137.767 22.8418 138.209 23.0575C138.672 23.2732 139.525 23.5428 140.766 23.8664L141.398 24.0281C142.723 24.3948 143.754 24.8046 144.491 25.2576C145.227 25.689 145.743 26.2174 146.038 26.8429C146.353 27.4469 146.511 28.2126 146.511 29.1401C146.511 30.5637 145.911 31.7068 144.712 32.5697C143.513 33.4107 141.776 33.8316 139.504 33.8316Z" fill="#81818B"/>
<path d="M147.613 9.4364H152.379V19.5956C153.095 18.8407 153.905 18.2799 154.809 17.9132C155.715 17.5249 156.683 17.3308 157.714 17.3308C159.776 17.3308 161.312 17.9024 162.322 19.0456C163.353 20.1672 163.869 21.6878 163.869 23.6076V33.3463H159.103V24.1576C159.103 22.1516 158.198 21.1486 156.388 21.1486C155.588 21.1486 154.842 21.3535 154.147 21.7633C153.452 22.1516 152.863 22.734 152.379 23.5104V33.3463H147.613V9.4364Z" fill="#81818B"/>
<path fill-rule="evenodd" clip-rule="evenodd" d="M24.6772 14.0142C24.6772 18.124 21.4271 21.4556 17.4175 21.4556C13.4079 21.4556 10.1575 18.124 10.1575 14.0142C10.1575 9.9044 13.4079 6.57275 17.4175 6.57275C21.4271 6.57275 24.6772 9.9044 24.6772 14.0142ZM0.53023 20.9148C8.43977 20.3683 15.3332 26.4383 15.9753 34.5628C16.0418 35.4045 16.0386 36.2356 15.9707 37.0504C8.06114 37.5969 1.16774 31.5268 0.52561 23.4024C0.459145 22.5606 0.462295 21.7293 0.53023 20.9148ZM21.0883 36.7659C29.0146 36.1075 34.9363 29.042 34.4034 20.9348C33.6085 20.8651 32.7979 20.8618 31.9763 20.93C24.05 21.5882 18.1282 28.6539 18.6614 36.7611C19.4561 36.831 20.2669 36.8341 21.0883 36.7659Z" fill="#81818B"/>
</svg>
