<svg width="184" height="46" viewBox="0 0 184 46" fill="none" xmlns="http://www.w3.org/2000/svg">
<g clip-path="url(#clip0_1_102)">
<path d="M29.8756 10.2956C32.0298 8.33372 34.9549 7.18859 37.9195 7.04615C38.9342 7.04615 39.9518 7.05193 40.9665 7.04321C40.9147 8.08088 40.9665 9.12137 40.936 10.159C40.7928 12.4784 39.8939 14.7454 38.3796 16.5649C36.4113 19.0122 33.4009 20.6543 30.2047 21.0787C28.8092 21.2938 27.3923 21.1572 25.9877 21.195C26.0121 20.0527 25.9359 18.9076 26.0304 17.7682C26.3046 14.9431 27.7032 12.2371 29.8756 10.2956Z" fill="#81818B"/>
<path d="M41.9061 7.04321C42.9939 7.05487 44.0816 7.03744 45.1724 7.04904C47.8872 7.23211 50.5655 8.22614 52.6098 9.94977C54.8645 11.7954 56.4096 14.4345 56.8054 17.2538C56.9792 18.5617 56.8695 19.8841 56.9367 21.1978C55.9859 21.195 55.0383 21.1921 54.0875 21.1978C51.7507 21.1368 49.4533 20.416 47.4972 19.2011C46.5953 18.5849 45.669 17.9601 44.9926 17.1055C43.5088 15.5244 42.5002 13.5392 42.1194 11.4466C41.8329 9.99329 41.9487 8.51101 41.9061 7.04321Z" fill="#81818B"/>
<path d="M25.9898 22.0291C26.9557 22.0813 27.9246 21.9854 28.8874 22.0872C33.0099 22.1714 37.0106 24.3804 39.1464 27.7432C40.3714 29.6266 41.0295 31.8589 40.9442 34.0763C40.9411 34.8035 40.9533 35.5269 40.932 36.2509C39.4024 36.2068 37.8576 36.326 36.3432 36.044C32.9795 35.5038 29.8869 33.5939 28.0251 30.8677C26.6144 28.8854 25.9106 26.4644 25.9837 24.0723C25.9837 23.3892 25.9837 22.7091 25.9898 22.0291Z" fill="#81818B"/>
<path d="M51.7884 22.337C53.446 21.9853 55.1548 22.0434 56.8401 22.0434L56.9136 22.1132C56.8768 23.6333 57.0018 25.1708 56.6821 26.6735C56.0085 30.045 53.6686 33.0559 50.5209 34.7097C48.5617 35.7506 46.3131 36.2619 44.0736 36.2388C43.3576 36.242 42.6385 36.2273 41.9225 36.2472C41.9225 34.9888 41.8676 33.7248 42.0169 32.4717C42.3643 29.4404 44.0827 26.6182 46.5538 24.7116C48.0833 23.5606 49.8811 22.7265 51.7884 22.337Z" fill="#81818B"/>
<path d="M69.4217 30.6211C69.4217 31.1328 69.2359 31.5657 68.8652 31.92C68.514 32.2547 68.0704 32.422 67.5344 32.422C67.0183 32.422 66.5852 32.2547 66.2345 31.92C65.8838 31.5657 65.7084 31.1328 65.7084 30.6211V12.3775C65.7084 11.8658 65.8838 11.4427 66.2345 11.1082C66.6056 10.7539 67.0598 10.5768 67.5963 10.5768C68.1323 10.5768 68.5654 10.7539 68.8957 11.1082C69.2464 11.4427 69.4217 11.8658 69.4217 12.3775V30.6211Z" fill="#81818B"/>
<path d="M84.3275 16.6284C84.8636 16.6284 85.3072 16.8055 85.6584 17.1598C86.0086 17.4943 86.1839 17.9174 86.1839 18.4291V25.9273C86.1839 28.0134 85.5754 29.6665 84.3585 30.8867C83.141 32.1069 81.3875 32.7168 79.0969 32.7168C76.8074 32.7168 75.0534 32.1069 73.8365 30.8867C72.64 29.6665 72.0415 28.0134 72.0415 25.9273V18.4291C72.0415 17.9174 72.2168 17.4943 72.5675 17.1598C72.9182 16.8055 73.3618 16.6284 73.8984 16.6284C74.4349 16.6284 74.878 16.8055 75.2287 17.1598C75.58 17.4943 75.7553 17.9174 75.7553 18.4291V25.9273C75.7553 27.1278 76.0341 28.0232 76.5906 28.6136C77.1476 29.1844 77.9834 29.4697 79.0969 29.4697C80.2325 29.4697 81.0778 29.1844 81.6353 28.6136C82.1918 28.0232 82.4706 27.1278 82.4706 25.9273V18.4291C82.4706 17.9174 82.646 17.4943 82.9967 17.1598C83.3474 16.8055 83.791 16.6284 84.3275 16.6284Z" fill="#81818B"/>
<path d="M97.3533 16.3333C99.0039 16.3333 100.221 16.717 101.005 17.4845C101.789 18.2324 102.305 19.2065 102.552 20.407L102.026 20.1413L102.274 19.669C102.521 19.2163 102.903 18.7342 103.419 18.2225C103.935 17.6912 104.554 17.2484 105.276 16.8941C106.018 16.5202 106.844 16.3333 107.751 16.3333C109.237 16.3333 110.361 16.6383 111.125 17.2483C111.909 17.8584 112.445 18.6752 112.734 19.6986C113.023 20.7022 113.167 21.824 113.167 23.0639V30.6211C113.167 31.1328 112.992 31.5656 112.641 31.92C112.29 32.2547 111.847 32.422 111.31 32.422C110.774 32.422 110.33 32.2547 109.98 31.92C109.629 31.5656 109.453 31.1328 109.453 30.6211V23.0639C109.453 22.4144 109.371 21.8339 109.206 21.3221C109.041 20.7908 108.742 20.3677 108.308 20.0528C107.875 19.7379 107.256 19.5804 106.452 19.5804C105.668 19.5804 104.997 19.7379 104.44 20.0528C103.883 20.3677 103.46 20.7908 103.171 21.3221C102.903 21.8339 102.769 22.4144 102.769 23.0639V30.6211C102.769 31.1328 102.593 31.5656 102.243 31.92C101.892 32.2547 101.448 32.422 100.912 32.422C100.376 32.422 99.9321 32.2547 99.5819 31.92C99.2307 31.5656 99.0553 31.1328 99.0553 30.6211V23.0639C99.0553 22.4144 98.9729 21.8339 98.8075 21.3221C98.6427 20.7908 98.3434 20.3677 97.9103 20.0528C97.4772 19.7379 96.8577 19.5804 96.0534 19.5804C95.2696 19.5804 94.5991 19.7379 94.0416 20.0528C93.4851 20.3677 93.0619 20.7908 92.7732 21.3221C92.5049 21.8339 92.371 22.4144 92.371 23.0639V30.6211C92.371 31.1328 92.1957 31.5656 91.845 31.92C91.4938 32.2547 91.0507 32.422 90.5141 32.422C89.9776 32.422 89.5345 32.2547 89.1832 31.92C88.8325 31.5656 88.6572 31.1328 88.6572 30.6211V18.4292C88.6572 17.9175 88.8325 17.4943 89.1832 17.1598C89.5345 16.8055 89.9776 16.6285 90.5141 16.6285C91.0507 16.6285 91.4938 16.8055 91.845 17.1598C92.1957 17.4943 92.371 17.9175 92.371 18.4292V19.6986L91.9064 19.61C92.0923 19.2754 92.3506 18.9211 92.6803 18.5472C93.0105 18.1536 93.4126 17.7895 93.8872 17.455C94.3618 17.1204 94.8879 16.8547 95.4654 16.6579C96.0434 16.4415 96.6729 16.3333 97.3533 16.3333Z" fill="#81818B"/>
<path d="M119.136 30.6211C119.136 31.1328 118.961 31.5656 118.609 31.92C118.259 32.2547 117.816 32.422 117.279 32.422C116.743 32.422 116.299 32.2547 115.948 31.92C115.598 31.5656 115.423 31.1328 115.423 30.6211V18.4292C115.423 17.9175 115.598 17.4943 115.948 17.1598C116.299 16.8055 116.743 16.6285 117.279 16.6285C117.816 16.6285 118.259 16.8055 118.609 17.1598C118.961 17.4943 119.136 17.9175 119.136 18.4292V30.6211ZM117.248 14.7096C116.547 14.7096 116.052 14.6014 115.762 14.3849C115.474 14.1684 115.33 13.7846 115.33 13.2336V12.6727C115.33 12.102 115.485 11.7182 115.793 11.5214C116.124 11.3049 116.619 11.1967 117.279 11.1967C118.002 11.1967 118.507 11.3049 118.795 11.5214C119.085 11.7379 119.229 12.1217 119.229 12.6727V13.2336C119.229 13.8043 119.074 14.1979 118.764 14.4144C118.456 14.6112 117.95 14.7096 117.248 14.7096Z" fill="#81818B"/>
<path d="M130.256 16.3333C131.783 16.3333 132.938 16.6383 133.722 17.2483C134.527 17.8584 135.073 18.6752 135.362 19.6986C135.672 20.7022 135.826 21.824 135.826 23.0639V30.6211C135.826 31.1328 135.651 31.5656 135.3 31.92C134.95 32.2547 134.506 32.422 133.969 32.422C133.433 32.422 132.99 32.2547 132.639 31.92C132.288 31.5656 132.112 31.1328 132.112 30.6211V23.0639C132.112 22.4144 132.02 21.8339 131.835 21.3221C131.669 20.7908 131.36 20.3677 130.906 20.0528C130.452 19.7379 129.802 19.5804 128.956 19.5804C128.131 19.5804 127.429 19.7379 126.852 20.0528C126.295 20.3677 125.862 20.7908 125.552 21.3221C125.263 21.8339 125.118 22.4144 125.118 23.0639V30.6211C125.118 31.1328 124.944 31.5656 124.593 31.92C124.242 32.2547 123.798 32.422 123.262 32.422C122.725 32.422 122.282 32.2547 121.932 31.92C121.58 31.5656 121.405 31.1328 121.405 30.6211V18.4292C121.405 17.9175 121.58 17.4943 121.932 17.1598C122.282 16.8055 122.725 16.6285 123.262 16.6285C123.798 16.6285 124.242 16.8055 124.593 17.1598C124.944 17.4943 125.118 17.9175 125.118 18.4292V19.6986L124.655 19.61C124.841 19.2754 125.108 18.9211 125.459 18.5472C125.81 18.1536 126.223 17.7895 126.697 17.455C127.172 17.1204 127.708 16.8547 128.306 16.6579C128.905 16.4415 129.555 16.3333 130.256 16.3333Z" fill="#81818B"/>
<path d="M154.2 24.5398C154.2 26.1536 153.818 27.5805 153.055 28.8203C152.312 30.0405 151.301 30.995 150.022 31.6837C148.763 32.3728 147.35 32.7168 145.782 32.7168C144.214 32.7168 142.79 32.3728 141.512 31.6837C140.253 30.995 139.242 30.0405 138.479 28.8203C137.736 27.5805 137.365 26.1536 137.365 24.5398C137.365 22.9261 137.736 21.5091 138.479 20.2889C139.242 19.0491 140.253 18.0848 141.512 17.396C142.79 16.6875 144.214 16.3333 145.782 16.3333C147.35 16.3333 148.763 16.6875 150.022 17.396C151.301 18.0848 152.312 19.0491 153.055 20.2889C153.818 21.5091 154.2 22.9261 154.2 24.5398ZM150.486 24.5398C150.486 23.5362 150.27 22.6703 149.836 21.9421C149.423 21.1942 148.856 20.6137 148.134 20.2004C147.433 19.7871 146.649 19.5804 145.782 19.5804C144.916 19.5804 144.121 19.7871 143.399 20.2004C142.698 20.6137 142.13 21.1942 141.697 21.9421C141.285 22.6703 141.078 23.5362 141.078 24.5398C141.078 25.5239 141.285 26.3898 141.697 27.1377C142.13 27.8658 142.698 28.4365 143.399 28.8498C144.121 29.2632 144.916 29.4697 145.782 29.4697C146.649 29.4697 147.433 29.2632 148.134 28.8498C148.856 28.4365 149.423 27.8658 149.836 27.1377C150.27 26.3898 150.486 25.5239 150.486 24.5398Z" fill="#81818B"/>
<path d="M168.041 16.6284C168.577 16.6284 169.021 16.8055 169.372 17.1598C169.722 17.4943 169.898 17.9174 169.898 18.4291V25.9273C169.898 28.0134 169.289 29.6665 168.072 30.8867C166.854 32.1069 165.101 32.7168 162.811 32.7168C160.521 32.7168 158.767 32.1069 157.55 30.8867C156.353 29.6665 155.755 28.0134 155.755 25.9273V18.4291C155.755 17.9174 155.93 17.4943 156.281 17.1598C156.632 16.8055 157.075 16.6284 157.612 16.6284C158.148 16.6284 158.592 16.8055 158.943 17.1598C159.293 17.4943 159.469 17.9174 159.469 18.4291V25.9273C159.469 27.1278 159.747 28.0232 160.304 28.6136C160.861 29.1844 161.697 29.4697 162.811 29.4697C163.945 29.4697 164.792 29.1844 165.348 28.6136C165.906 28.0232 166.184 27.1278 166.184 25.9273V18.4291C166.184 17.9174 166.36 17.4943 166.71 17.1598C167.061 16.8055 167.505 16.6284 168.041 16.6284Z" fill="#81818B"/>
<path d="M171.411 29.9716C171.205 29.6961 171.112 29.3419 171.133 28.9089C171.154 28.4759 171.422 28.102 171.938 27.7871C172.268 27.5903 172.618 27.5116 172.99 27.551C173.361 27.5707 173.722 27.7477 174.073 28.0823C174.672 28.653 175.301 29.0958 175.961 29.4107C176.621 29.7256 177.446 29.883 178.436 29.883C178.746 29.8633 179.086 29.824 179.458 29.765C179.829 29.6863 180.149 29.5288 180.417 29.2927C180.705 29.0368 180.85 28.653 180.85 28.1413C180.85 27.7084 180.695 27.364 180.386 27.1081C180.076 26.8523 179.664 26.6359 179.148 26.4587C178.653 26.2816 178.096 26.1143 177.477 25.9569C176.837 25.7797 176.177 25.583 175.496 25.3665C174.836 25.15 174.227 24.8745 173.67 24.5398C173.114 24.1856 172.66 23.7232 172.309 23.1524C171.958 22.5817 171.783 21.8633 171.783 20.9975C171.783 20.0134 172.071 19.177 172.649 18.4882C173.227 17.7994 173.97 17.2681 174.877 16.8941C175.806 16.5202 176.775 16.3333 177.786 16.3333C178.426 16.3333 179.096 16.4119 179.798 16.5694C180.499 16.7072 181.17 16.9433 181.81 17.2779C182.449 17.5927 182.986 18.0159 183.419 18.5472C183.645 18.8424 183.78 19.1967 183.821 19.61C183.862 20.0233 183.666 20.3972 183.233 20.7318C182.924 20.9679 182.563 21.0762 182.15 21.0565C181.738 21.0171 181.397 20.8794 181.129 20.6432C180.778 20.2102 180.304 19.8658 179.705 19.61C179.127 19.3542 178.457 19.2262 177.694 19.2262C177.384 19.2262 177.044 19.2656 176.672 19.3443C176.322 19.4033 176.012 19.551 175.744 19.7871C175.476 20.0036 175.342 20.3578 175.342 20.8498C175.342 21.3025 175.496 21.6666 175.806 21.9421C176.115 22.1979 176.528 22.4144 177.044 22.5916C177.58 22.749 178.148 22.9065 178.746 23.0639C179.365 23.2213 179.994 23.4083 180.634 23.6247C181.274 23.8413 181.861 24.1266 182.398 24.4808C182.934 24.8351 183.367 25.2976 183.697 25.8683C184.028 26.4193 184.192 27.1278 184.192 27.9938C184.192 28.9975 183.883 29.8536 183.264 30.562C182.645 31.2706 181.871 31.8117 180.943 32.1857C180.015 32.5401 179.065 32.7168 178.096 32.7168C176.879 32.7168 175.662 32.5204 174.444 32.1267C173.227 31.7132 172.216 30.995 171.411 29.9716Z" fill="#81818B"/>
</g>
<defs>
<clipPath id="clip0_1_102">
<rect width="184" height="79" fill="white" transform="translate(0 -18)"/>
</clipPath>
</defs>
</svg>
