<svg width="198" height="46" viewBox="0 0 198 46" fill="none" xmlns="http://www.w3.org/2000/svg">
<path fill-rule="evenodd" clip-rule="evenodd" d="M29.5953 13.2361C32.3357 9.73387 36.7239 7.46493 41.6698 7.46493C46.6448 7.46493 51.0553 9.76065 53.7924 13.298C53.6759 13.4118 53.5698 13.5298 53.4737 13.6476C52.9724 14.2645 52.5951 15.059 52.293 15.8659C51.6844 17.4887 51.2202 19.6085 50.7904 21.5935L50.7522 21.7719C50.3234 23.7533 49.9248 25.5959 49.4428 26.9638C49.2263 27.5783 49.021 28.0128 48.8389 28.291C48.6489 28.0105 48.4334 27.5708 48.2052 26.9475C47.6898 25.5403 47.2562 23.6263 46.7967 21.5827L46.7818 21.5157V21.5157C46.3401 19.5527 45.8717 17.4699 45.2876 15.8756C44.9941 15.0747 44.6341 14.2881 44.1632 13.6769C43.701 13.0772 42.9317 12.4003 41.8065 12.4003C40.6884 12.4003 39.9156 13.0698 39.4467 13.6629C38.9667 14.2701 38.5924 15.0534 38.2842 15.8547C37.6633 17.4682 37.1557 19.5789 36.6833 21.5666L36.6346 21.7719C36.1668 23.7409 35.7295 25.5818 35.2331 26.9523C35.0437 27.4757 34.8648 27.8739 34.703 28.1583C34.5448 27.8752 34.3704 27.4797 34.1861 26.9607C33.7099 25.6194 33.2928 23.8301 32.8447 21.9083L32.7663 21.5719C32.3021 19.583 31.7985 17.4685 31.1688 15.85C30.8559 15.0457 30.4733 14.2584 29.9781 13.6484C29.8659 13.5103 29.7385 13.3701 29.5953 13.2361ZM27.9368 15.9253C28.0673 16.1701 28.2054 16.4736 28.3481 16.8406C28.8932 18.2416 29.3549 20.1533 29.8304 22.1905L29.923 22.5875C30.3559 24.4464 30.8062 26.38 31.3367 27.8739C31.6188 28.6684 31.9595 29.4466 32.3977 30.0514C32.8121 30.6235 33.5555 31.3623 34.6986 31.3623C35.8383 31.3623 36.5835 30.627 37.0007 30.0576C37.4426 29.4542 37.7889 28.6769 38.0767 27.8818C38.6285 26.3584 39.0983 24.3794 39.5479 22.4855V22.4854L39.6167 22.1959C40.1011 20.1574 40.5675 18.2419 41.1086 16.8358C41.3592 16.1843 41.5939 15.7305 41.7981 15.449C41.9918 15.7281 42.213 16.1747 42.4476 16.815C42.9631 18.2222 43.3962 20.1361 43.8559 22.1798L43.871 22.2467C44.3125 24.2098 44.7809 26.2926 45.365 27.8867C45.6585 28.6879 46.0185 29.4745 46.4894 30.0855C46.9517 30.6854 47.7209 31.3623 48.8459 31.3623C49.9769 31.3623 50.7434 30.6792 51.2001 30.074C51.6639 29.4599 52.0127 28.6707 52.2944 27.8708C52.8359 26.3344 53.2664 24.3408 53.6769 22.4444V22.4443L53.7357 22.169C54.1778 20.1278 54.602 18.2214 55.1259 16.8246C55.2393 16.5208 55.3511 16.2617 55.4577 16.0441C56.2604 17.7921 56.7056 19.7223 56.7056 21.7513C56.7056 29.6413 49.9741 36.0377 41.6698 36.0377C33.3656 36.0377 26.6338 29.6413 26.6338 21.7513C26.6338 19.6762 27.0994 17.7044 27.9368 15.9253ZM41.6698 4.60767C31.7048 4.60767 23.6266 12.2831 23.6266 21.7513C23.6266 31.2194 31.7048 38.8948 41.6698 38.8948C51.635 38.8948 59.7128 31.2194 59.7128 21.7513C59.7128 12.2831 51.635 4.60767 41.6698 4.60767ZM42.0136 15.2098C42.0136 15.2101 42.01 15.2128 42.003 15.2167C42.01 15.2114 42.0136 15.2095 42.0136 15.2098ZM41.5979 15.2117C41.5909 15.2077 41.5875 15.2049 41.5875 15.2045C41.5875 15.2042 41.591 15.2062 41.5979 15.2117ZM48.6173 28.5623C48.6173 28.5623 48.6205 28.5592 48.627 28.5552C48.6205 28.5605 48.6173 28.5627 48.6173 28.5623ZM49.0545 28.5508C49.0615 28.5548 49.0652 28.5574 49.0652 28.5579C49.0652 28.5583 49.0615 28.5561 49.0545 28.5508ZM34.3904 28.5879C34.3903 28.5875 34.3947 28.5835 34.4034 28.5778C34.3948 28.5853 34.3904 28.5884 34.3904 28.5879ZM34.9994 28.5804C35.008 28.5862 35.0123 28.5901 35.0123 28.5906C35.0123 28.591 35.0079 28.5884 34.9994 28.5804Z" fill="#81818B"/>
<path d="M69.6758 31.9007L65.3004 17.6801H69.1329L71.728 27.9154L74.7452 17.6801H79.0302L82.0479 27.9154L84.6729 17.6801H88.5054L84.0996 31.9007H80.0865L76.8877 21.2639L73.6894 31.9007H69.6758Z" fill="#81818B"/>
<path d="M94.1287 32.2449C92.8414 32.2449 91.7851 32.0533 90.9604 31.6711C90.1361 31.2698 89.5224 30.7442 89.1197 30.0943C88.7176 29.4444 88.5165 28.7277 88.5165 27.9442C88.5165 26.6254 89.0593 25.5549 90.1456 24.733C91.2318 23.9112 92.8619 23.5002 95.0344 23.5002H98.8364V23.1562C98.8364 22.1813 98.5445 21.4646 97.9612 21.0059C97.378 20.5471 96.6535 20.3178 95.7888 20.3178C95.0039 20.3178 94.3198 20.4993 93.7366 20.8625C93.1533 21.2066 92.791 21.7226 92.6503 22.4107H88.8782C88.979 21.3786 89.3413 20.4802 89.9644 19.7157C90.6086 18.9512 91.4334 18.3682 92.4388 17.9668C93.4452 17.5463 94.5713 17.3361 95.8187 17.3361C97.9513 17.3361 99.6307 17.8425 100.858 18.8556C102.085 19.8686 102.699 21.3022 102.699 23.1562V31.9007H99.4092L99.0475 29.6072C98.6049 30.3717 97.9812 31.0022 97.1769 31.4995C96.392 31.9963 95.3761 32.2449 94.1287 32.2449ZM95.0039 29.3776C96.1106 29.3776 96.9653 29.0334 97.5685 28.3455C98.1922 27.6575 98.5849 26.8067 98.7461 25.7938H95.4565C94.4306 25.7938 93.6967 25.9754 93.2536 26.3386C92.8115 26.6824 92.59 27.1129 92.59 27.6287C92.59 28.1831 92.8115 28.6131 93.2536 28.9188C93.6967 29.2245 94.2794 29.3776 95.0039 29.3776Z" fill="#81818B"/>
<path d="M108.779 31.9007L103.287 17.6801H107.33L111.132 28.4317L114.934 17.6801H118.978L113.456 31.9007H108.779Z" fill="#81818B"/>
<path d="M126.742 32.2449C125.234 32.2449 123.896 31.9388 122.729 31.3273C121.563 30.7155 120.647 29.8554 119.983 28.7467C119.319 27.6385 118.988 26.3577 118.988 24.905C118.988 23.4333 119.31 22.124 119.953 20.9772C120.617 19.8304 121.522 18.9416 122.669 18.3108C123.835 17.661 125.203 17.3361 126.773 17.3361C128.241 17.3361 129.539 17.6419 130.665 18.2535C131.792 18.8651 132.667 19.7061 133.29 20.7765C133.934 21.8277 134.256 23.0032 134.256 24.303C134.256 24.5132 134.246 24.733 134.226 24.9624C134.226 25.1918 134.216 25.4307 134.196 25.6792H122.82C122.9 26.7877 123.303 27.6575 124.027 28.2884C124.771 28.9188 125.666 29.2343 126.713 29.2343C127.497 29.2343 128.151 29.0719 128.674 28.7467C129.216 28.403 129.619 27.9632 129.881 27.4279H133.803C133.522 28.3264 133.049 29.1485 132.385 29.8939C131.741 30.6199 130.937 31.1933 129.971 31.614C129.026 32.0343 127.949 32.2449 126.742 32.2449ZM126.773 20.3178C125.828 20.3178 124.992 20.5758 124.268 21.0919C123.544 21.5888 123.081 22.3534 122.88 23.3855H130.333C130.273 22.4489 129.911 21.7035 129.247 21.1492C128.583 20.5949 127.759 20.3178 126.773 20.3178Z" fill="#81818B"/>
<path d="M136.298 31.9007V11.2578H140.16V31.9007H136.298Z" fill="#81818B"/>
<path d="M150.171 32.2449C148.663 32.2449 147.325 31.9388 146.158 31.3273C144.992 30.7155 144.077 29.8554 143.413 28.7467C142.748 27.6385 142.417 26.3577 142.417 24.905C142.417 23.4333 142.739 22.124 143.382 20.9772C144.046 19.8304 144.951 18.9416 146.098 18.3108C147.265 17.661 148.633 17.3361 150.202 17.3361C151.67 17.3361 152.968 17.6419 154.095 18.2535C155.221 18.8651 156.097 19.7061 156.72 20.7765C157.363 21.8277 157.686 23.0032 157.686 24.303C157.686 24.5132 157.675 24.733 157.655 24.9624C157.655 25.1918 157.645 25.4307 157.625 25.6792H146.249C146.329 26.7877 146.732 27.6575 147.456 28.2884C148.2 28.9188 149.096 29.2343 150.142 29.2343C150.926 29.2343 151.58 29.0719 152.103 28.7467C152.646 28.403 153.048 27.9632 153.31 27.4279H157.233C156.951 28.3264 156.478 29.1485 155.815 29.8939C155.17 30.6199 154.366 31.1933 153.4 31.614C152.455 32.0343 151.379 32.2449 150.171 32.2449ZM150.202 20.3178C149.257 20.3178 148.422 20.5758 147.697 21.0919C146.973 21.5888 146.511 22.3534 146.309 23.3855H153.762C153.702 22.4489 153.34 21.7035 152.676 21.1492C152.012 20.5949 151.188 20.3178 150.202 20.3178Z" fill="#81818B"/>
<path d="M165.913 32.2449C164.585 32.2449 163.418 32.044 162.413 31.6428C161.406 31.222 160.602 30.6487 159.998 29.9222C159.395 29.1962 159.033 28.3552 158.912 27.3996H162.804C162.925 27.9535 163.248 28.4317 163.77 28.833C164.313 29.2152 165.007 29.4064 165.852 29.4064C166.697 29.4064 167.311 29.244 167.693 28.9188C168.095 28.5941 168.296 28.2212 168.296 27.8008C168.296 27.189 168.015 26.778 167.452 26.5678C166.888 26.3386 166.104 26.1188 165.098 25.9085C164.455 25.7747 163.801 25.6123 163.137 25.4211C162.473 25.23 161.859 24.991 161.296 24.7044C160.753 24.3985 160.31 24.0163 159.968 23.5575C159.626 23.0797 159.455 22.4967 159.455 21.8086C159.455 20.5471 159.978 19.4864 161.025 18.6262C162.09 17.7661 163.579 17.3361 165.49 17.3361C167.261 17.3361 168.669 17.7279 169.715 18.5115C170.781 19.2952 171.414 20.3751 171.616 21.7513H167.965C167.743 20.7001 166.908 20.1744 165.46 20.1744C164.736 20.1744 164.173 20.3082 163.77 20.5758C163.388 20.8434 163.197 21.1779 163.197 21.5793C163.197 21.9998 163.489 22.3343 164.072 22.5828C164.656 22.8312 165.43 23.0606 166.395 23.2709C167.441 23.5002 168.397 23.7582 169.262 24.0449C170.147 24.3125 170.851 24.7235 171.375 25.2778C171.897 25.8129 172.159 26.5869 172.159 27.6C172.179 28.4795 171.937 29.2723 171.435 29.9797C170.932 30.6867 170.208 31.2411 169.262 31.6428C168.317 32.044 167.2 32.2449 165.913 32.2449Z" fill="#81818B"/>
<path d="M180.559 32.2449C179.232 32.2449 178.065 32.044 177.059 31.6428C176.053 31.222 175.249 30.6487 174.645 29.9222C174.042 29.1962 173.679 28.3552 173.559 27.3996H177.451C177.572 27.9535 177.894 28.4317 178.417 28.833C178.96 29.2152 179.654 29.4064 180.499 29.4064C181.344 29.4064 181.958 29.244 182.34 28.9188C182.742 28.5941 182.943 28.2212 182.943 27.8008C182.943 27.189 182.662 26.778 182.098 26.5678C181.535 26.3386 180.751 26.1188 179.745 25.9085C179.101 25.7747 178.447 25.6123 177.783 25.4211C177.12 25.23 176.506 24.991 175.943 24.7044C175.4 24.3985 174.957 24.0163 174.615 23.5575C174.273 23.0797 174.102 22.4967 174.102 21.8086C174.102 20.5471 174.625 19.4864 175.671 18.6262C176.737 17.7661 178.226 17.3361 180.137 17.3361C181.907 17.3361 183.315 17.7279 184.361 18.5115C185.427 19.2952 186.061 20.3751 186.263 21.7513H182.611C182.39 20.7001 181.555 20.1744 180.107 20.1744C179.382 20.1744 178.819 20.3082 178.417 20.5758C178.035 20.8434 177.844 21.1779 177.844 21.5793C177.844 21.9998 178.135 22.3343 178.719 22.5828C179.302 22.8312 180.076 23.0606 181.042 23.2709C182.088 23.5002 183.044 23.7582 183.909 24.0449C184.794 24.3125 185.498 24.7235 186.021 25.2778C186.544 25.8129 186.806 26.5869 186.806 27.6C186.826 28.4795 186.584 29.2723 186.081 29.9797C185.578 30.6867 184.854 31.2411 183.909 31.6428C182.963 32.044 181.847 32.2449 180.559 32.2449Z" fill="#81818B"/>
</svg>
