<svg width="164" height="46" viewBox="0 0 164 46" fill="none" xmlns="http://www.w3.org/2000/svg">
<path d="M0.173889 27.3943L11.8335 22.3411L18.5445 26.1308L19.9002 38.564L11.6301 38.4979L12.8503 29.8539L11.4267 29.0561L4.4445 34.3753L0.173889 27.3943Z" fill="#81818B"/>
<path d="M19.2906 25.5985L29.5945 32.9783L33.6616 25.8645L25.3913 22.6066V21.0109L33.6616 17.6866L29.5945 10.6389L19.2906 18.019V25.5985Z" fill="#81818B"/>
<path d="M18.5445 17.4209L19.9002 4.98779L11.6301 5.12078L12.8503 13.7641L11.4267 14.5619L4.37672 9.24297L0.173889 16.1576L11.8335 21.2107L18.5445 17.4209Z" fill="#81818B"/>
<path d="M61.2524 20.2858V31.934H65.7034V17.0895H59.2217V20.2858H61.2524Z" fill="#81818B"/>
<path d="M61.1133 15.0038C61.5213 15.4191 62.1429 15.6267 62.9771 15.6267C63.8124 15.6267 64.424 15.4191 64.813 15.0038C65.2215 14.5702 65.4252 14.0284 65.4252 13.3785C65.4252 12.7102 65.2215 12.1685 64.813 11.7532C64.424 11.3198 63.8124 11.103 62.9771 11.103C62.1429 11.103 61.5213 11.3198 61.1133 11.7532C60.7243 12.1685 60.5295 12.7102 60.5295 13.3785C60.5295 14.0284 60.7243 14.5702 61.1133 15.0038Z" fill="#81818B"/>
<path d="M45.7576 31.6087C47.0186 32.1685 48.5669 32.4486 50.4028 32.4486C52.128 32.4486 53.6111 32.1864 54.8543 31.6629C56.097 31.1393 57.0519 30.4078 57.7192 29.4686C58.4059 28.5115 58.7487 27.401 58.7487 26.1368C58.7487 24.9089 58.4248 23.8705 57.7754 23.0216C57.1443 22.1549 56.2639 21.4777 55.1325 20.9902C54.0012 20.4844 52.6934 20.1684 51.2097 20.0422L49.6521 19.9067C48.7249 19.8343 48.0571 19.5907 47.6492 19.1752C47.2407 18.7599 47.037 18.2722 47.037 17.7126C47.037 17.279 47.1489 16.8818 47.3704 16.5206C47.5935 16.1414 47.9269 15.8434 48.3721 15.6266C48.8362 15.4101 49.4016 15.3017 50.0694 15.3017C50.774 15.3017 51.3583 15.4279 51.8219 15.6809C51.9237 15.7344 52.0209 15.7915 52.1117 15.8521L52.1337 15.8672C52.1678 15.8901 52.2015 15.9139 52.234 15.9379C52.5159 16.1474 52.7401 16.3959 52.9071 16.6832C53.1475 17.0805 53.2688 17.5228 53.2688 18.0105H57.7192C57.7192 16.7101 57.4131 15.5815 56.8015 14.6245C56.1899 13.6493 55.3089 12.8999 54.1592 12.376C53.0273 11.8343 51.6644 11.5634 50.0694 11.5634C48.5485 11.5634 47.2318 11.8164 46.1188 12.3219C45.0063 12.8096 44.1348 13.5138 43.5043 14.4347C42.8916 15.3557 42.5856 16.4484 42.5856 17.7126C42.5856 19.4642 43.1888 20.8727 44.3942 21.9383C45.5996 23.0037 47.2134 23.6177 49.2347 23.7802L50.7651 23.9157C52.0072 24.0241 52.9071 24.2679 53.4636 24.6469C54.0195 25.0081 54.2978 25.5047 54.2978 26.1368C54.2978 26.4273 54.249 26.6997 54.1513 26.9543C54.0789 27.1433 53.9791 27.3222 53.8531 27.4913C53.5554 27.8703 53.1202 28.1683 52.5453 28.3854C51.9704 28.6019 51.2565 28.7102 50.4028 28.7102C49.4573 28.7102 48.6876 28.584 48.0944 28.3308C47.5006 28.0601 47.0559 27.7079 46.7583 27.2748C46.4805 26.8411 46.3419 26.3717 46.3419 25.8659H41.9183C41.9183 27.1481 42.2427 28.286 42.8916 29.2789C43.5411 30.2543 44.496 31.0311 45.7576 31.6087Z" fill="#81818B"/>
<path d="M75.6348 32.1233C74.095 32.1233 72.8528 31.943 71.9068 31.5815C70.9607 31.2025 70.2656 30.5792 69.8204 29.7125C69.3941 28.8275 69.1805 27.6359 69.1805 26.1368V20.2587H66.8715V17.0895H69.1805V13.0806H73.3253V17.0895H77.7768V20.2587H73.3253V26.2996C73.3253 27.0038 73.5112 27.5455 73.8818 27.9245C74.2714 28.286 74.8184 28.4664 75.5235 28.4664H77.7768V32.1233H75.6348Z" fill="#81818B"/>
<path fill-rule="evenodd" clip-rule="evenodd" d="M83.136 31.7984C84.1372 32.2316 85.2875 32.4486 86.5853 32.4486C87.8647 32.4486 88.9966 32.2316 89.9794 31.7984C90.9622 31.3648 91.7786 30.7599 92.4275 29.9836C93.0764 29.2068 93.5127 28.3218 93.7347 27.3289H89.6455C89.4602 27.7804 89.1079 28.1594 88.5887 28.4663C88.0695 28.7733 87.4011 28.9272 86.5853 28.9272C86.0797 28.9272 85.6282 28.8686 85.2303 28.7522C84.9273 28.6637 84.6559 28.5415 84.4155 28.3854C83.859 28.0243 83.451 27.5182 83.1912 26.8683C83.1192 26.6832 83.0578 26.4895 83.0058 26.2878C82.9528 26.0834 82.9103 25.8708 82.8783 25.6494H94.013V24.1865C94.013 22.8321 93.7164 21.5861 93.1231 20.4485C92.5293 19.2925 91.6668 18.3625 90.5359 17.6583C89.4229 16.9359 88.0506 16.5747 86.4183 16.5747C85.1757 16.5747 84.0627 16.7915 83.0799 17.2249C82.116 17.6402 81.309 18.209 80.6601 18.9314C80.0112 19.6537 79.5104 20.4756 79.1571 21.3966C78.8237 22.2993 78.6567 23.2474 78.6567 24.2407V24.7824C78.6567 25.7397 78.8237 26.6786 79.1571 27.5997C79.5104 28.5026 80.0112 29.3241 80.6601 30.0646C81.3274 30.7872 82.1522 31.3648 83.136 31.7984ZM82.9549 22.9708C82.967 22.9135 82.9801 22.857 82.9943 22.8014C83.0331 22.6483 83.0772 22.5015 83.1282 22.3613C83.1565 22.2814 83.187 22.2035 83.2195 22.1278C83.4972 21.4596 83.9057 20.954 84.4433 20.611C84.6444 20.4827 84.8622 20.3784 85.0959 20.2982C85.4896 20.1636 85.9306 20.0963 86.4183 20.0963C87.1791 20.0963 87.8091 20.2679 88.3099 20.611C88.8291 20.9359 89.2187 21.4145 89.4786 22.0465C89.4996 22.0975 89.5195 22.1495 89.5389 22.202C89.5694 22.2858 89.5983 22.3717 89.6245 22.4598C89.6639 22.5909 89.698 22.7266 89.7285 22.8668C89.7505 22.9702 89.7694 23.076 89.7862 23.1844H82.9119C82.925 23.112 82.9392 23.0409 82.9549 22.9708Z" fill="#81818B"/>
<path d="M95.8499 31.934V17.0895H99.3832V20.8282C99.4309 20.6059 99.4855 20.3926 99.5464 20.1881C99.5989 20.0157 99.6551 19.8495 99.7165 19.6899C100.106 18.6785 100.69 17.9202 101.469 17.4144C102.248 16.8907 103.203 16.629 104.335 16.629H104.529C105.679 16.629 106.634 16.8907 107.395 17.4144C108.174 17.9202 108.758 18.6785 109.147 19.6899L109.178 19.7662L109.204 19.836C109.222 19.7867 109.24 19.7381 109.258 19.6899C109.666 18.6785 110.26 17.9202 111.039 17.4144C111.818 16.8907 112.773 16.629 113.905 16.629H114.099C115.249 16.629 116.213 16.8907 116.992 17.4144C117.79 17.9202 118.393 18.6785 118.8 19.6899C119.208 20.7012 119.413 21.9654 119.413 23.4823V31.934H114.961V23.2384C114.961 22.4258 114.739 21.7667 114.294 21.2611C113.867 20.7553 113.255 20.5025 112.458 20.5025C111.66 20.5025 111.03 20.7645 110.566 21.2881C110.103 21.7937 109.871 22.4709 109.871 23.3198V31.934H105.392V23.2384C105.392 22.4258 105.169 21.7667 104.724 21.2611C104.298 20.7553 103.694 20.5025 102.916 20.5025C102.1 20.5025 101.46 20.7645 100.996 21.2881C100.533 21.7937 100.301 22.4709 100.301 23.3198V31.934H95.8499Z" fill="#81818B"/>
<path fill-rule="evenodd" clip-rule="evenodd" d="M131.303 29.0736V31.9341H134.835V22.8322C134.835 21.4597 134.557 20.3402 134.001 19.4732C133.444 18.5883 132.629 17.9293 131.553 17.4959C130.496 17.0625 129.188 16.8457 127.63 16.8457C127.293 16.8457 126.94 16.8492 126.573 16.8564C126.356 16.8608 126.133 16.8662 125.906 16.8728C125.293 16.8909 124.7 16.9179 124.125 16.9541L123.686 16.9829C123.46 16.9982 123.249 17.0132 123.049 17.0285C122.9 17.0398 122.757 17.0512 122.623 17.0625V20.7195C123.198 20.6832 123.838 20.6471 124.543 20.6111C124.74 20.601 124.935 20.5916 125.129 20.5829C125.409 20.5703 125.685 20.5593 125.959 20.5498C126.175 20.5421 126.389 20.5353 126.601 20.5297C127.269 20.5116 127.807 20.5026 128.215 20.5026C129.03 20.5026 129.624 20.6922 129.995 21.0715C130.366 21.4507 130.551 22.0196 130.551 22.7782V22.8322H127.797C126.444 22.8322 125.247 23.0038 124.208 23.347C123.17 23.672 122.363 24.1866 121.789 24.8909C121.213 25.5773 120.926 26.4621 120.926 27.5456C120.926 28.5389 121.158 29.3967 121.621 30.1193C122.085 30.8231 122.725 31.3649 123.541 31.7439C124.376 32.1234 125.34 32.3131 126.434 32.3131C127.491 32.3131 128.382 32.1234 129.105 31.7439C129.847 31.3649 130.422 30.8231 130.83 30.1193C130.902 30.0003 130.968 29.8772 131.031 29.7493C131.119 29.5685 131.198 29.3783 131.267 29.1787L131.303 29.0736ZM130.551 26.4351V25.2431H127.769C126.99 25.2431 126.388 25.4327 125.961 25.812C125.553 26.1732 125.349 26.6698 125.349 27.3018C125.349 27.5993 125.4 27.8696 125.501 28.1134C125.604 28.3577 125.757 28.5747 125.961 28.7644C126.388 29.126 126.99 29.3063 127.769 29.3063C127.917 29.3063 128.061 29.2991 128.199 29.2853C128.312 29.2736 128.422 29.2571 128.529 29.236C128.732 29.1958 128.925 29.1376 129.105 29.0624C129.513 28.8821 129.847 28.5841 130.106 28.1684C130.366 27.7532 130.515 27.1751 130.551 26.4351Z" fill="#81818B"/>
<path d="M137.499 31.9341V17.0895H141.033V21.9892C141.202 20.5905 141.628 19.4627 142.312 18.6065C143.24 17.4689 144.574 16.9 146.318 16.9H146.903V20.6381H145.79C144.566 20.6381 143.62 20.9631 142.952 21.6132C142.284 22.2453 141.95 23.1664 141.95 24.3761V31.9341H137.499Z" fill="#81818B"/>
<path d="M152.547 24.9993H154.021L158.834 31.9341H163.841L157.739 23.4174L162.756 17.0896H158.083L152.547 24.1478V12.1595H148.096V31.9341H152.547V24.9993Z" fill="#81818B"/>
</svg>
