<svg width="167" height="46" viewBox="0 0 167 46" fill="none" xmlns="http://www.w3.org/2000/svg">
<g clip-path="url(#clip0_1_129)">
<path d="M49.2482 12.8004C50.8358 12.8004 52.2097 13.0559 53.3705 13.567C54.548 14.0781 55.4521 14.8034 56.0837 15.7432C56.7152 16.6829 57.0313 17.7957 57.0313 19.0816C57.0313 20.351 56.7152 21.4638 56.0837 22.42C55.4521 23.3597 54.548 24.0851 53.3705 24.5964C52.2097 25.0907 50.8358 25.3381 49.2482 25.3381H45.6388V30.1109H41.4918V12.8004H49.2482ZM49.0182 22.0738C50.2635 22.0738 51.2111 21.8183 51.8595 21.3072C52.5084 20.7796 52.8323 20.0378 52.8323 19.0816C52.8323 18.1089 52.5084 17.367 51.8595 16.856C51.2111 16.3284 50.2635 16.0647 49.0182 16.0647H45.6388V22.0738H49.0182Z" fill="#81818B"/>
<path d="M62.2451 18.5623C62.7223 17.9194 63.3628 17.433 64.1645 17.1033C64.984 16.7736 65.9222 16.6088 66.9806 16.6088V20.1697C66.5369 20.1368 66.2382 20.1203 66.0844 20.1203C64.9409 20.1203 64.0453 20.4335 63.3969 21.06C62.748 21.6699 62.4236 22.5932 62.4236 23.8296V30.111H58.4304V16.8066H62.2451V18.5623Z" fill="#81818B"/>
<path d="M74.5038 30.3085C73.0533 30.3085 71.7476 30.0203 70.5873 29.4431C69.4439 28.8498 68.5477 28.0334 67.8993 26.9948C67.251 25.9562 66.9265 24.7774 66.9265 23.4587C66.9265 22.1398 67.251 20.9611 67.8993 19.9224C68.5477 18.8838 69.4439 18.076 70.5873 17.499C71.7476 16.9055 73.0533 16.6088 74.5038 16.6088C75.9544 16.6088 77.2517 16.9055 78.3951 17.499C79.5386 18.076 80.4348 18.8838 81.0837 19.9224C81.7315 20.9611 82.056 22.1398 82.056 23.4587C82.056 24.7774 81.7315 25.9562 81.0837 26.9948C80.4348 28.0334 79.5386 28.8498 78.3951 29.4431C77.2517 30.0203 75.9544 30.3085 74.5038 30.3085ZM74.5038 27.1432C75.5281 27.1432 76.3644 26.8138 77.0128 26.1541C77.6785 25.4783 78.0108 24.5799 78.0108 23.4587C78.0108 22.3377 77.6785 21.4474 77.0128 20.7879C76.3644 20.112 75.5281 19.774 74.5038 19.774C73.4801 19.774 72.6354 20.112 71.9697 20.7879C71.304 21.4474 70.9711 22.3377 70.9711 23.4587C70.9711 24.5799 71.304 25.4783 71.9697 26.1541C72.6354 26.8138 73.4801 27.1432 74.5038 27.1432Z" fill="#81818B"/>
<path d="M100.163 12.8004V30.1109H96.7581L87.8231 19.6009V30.1109H83.7271V12.8004H87.1574L96.0666 23.3103V12.8004H100.163Z" fill="#81818B"/>
<path d="M108.396 16.6088C110.529 16.6088 112.168 17.1033 113.311 18.0925C114.455 19.0652 115.026 20.5407 115.026 22.519V30.111H111.289V28.4539C110.538 29.6905 109.139 30.3085 107.091 30.3085C106.032 30.3085 105.11 30.1357 104.325 29.7894C103.558 29.4431 102.969 28.9652 102.559 28.355C102.15 27.7452 101.945 27.0525 101.945 26.2778C101.945 25.0413 102.423 24.0687 103.378 23.3598C104.351 22.6509 105.845 22.2965 107.859 22.2965H111.033C111.033 21.4556 110.769 20.8127 110.239 20.3676C109.71 19.9059 108.917 19.6751 107.859 19.6751C107.125 19.6751 106.399 19.7905 105.683 20.0214C104.983 20.2357 104.385 20.5325 103.89 20.9116L102.457 18.2161C103.208 17.7051 104.103 17.3094 105.144 17.0291C106.203 16.7489 107.287 16.6088 108.396 16.6088ZM108.089 27.7122C108.772 27.7122 109.377 27.5638 109.906 27.2669C110.435 26.9536 110.811 26.5004 111.033 25.9067V24.547H108.294C106.655 24.547 105.836 25.066 105.836 26.1047C105.836 26.5994 106.032 26.9948 106.425 27.2917C106.834 27.572 107.389 27.7122 108.089 27.7122Z" fill="#81818B"/>
<path d="M126.244 29.4678C125.852 29.7481 125.365 29.9625 124.785 30.1109C124.222 30.2425 123.624 30.3084 122.993 30.3084C121.355 30.3084 120.083 29.9048 119.179 29.0971C118.291 28.289 117.847 27.102 117.847 25.536V20.0708H115.723V17.1033H117.847V13.8638H121.841V17.1033H125.271V20.0708H121.841V25.4865C121.841 26.0469 121.986 26.4839 122.276 26.7972C122.583 27.0937 123.01 27.2421 123.556 27.2421C124.188 27.2421 124.725 27.0772 125.169 26.7478L126.244 29.4678Z" fill="#81818B"/>
<path d="M141.082 16.8066V30.111H137.293V28.5282C136.764 29.105 136.132 29.5503 135.398 29.8637C134.664 30.1605 133.871 30.3085 133.017 30.3085C131.208 30.3085 129.775 29.806 128.716 28.8003C127.658 27.7947 127.129 26.3026 127.129 24.3244V16.8066H131.123V23.7554C131.123 25.8985 132.053 26.9701 133.913 26.9701C134.869 26.9701 135.637 26.6737 136.218 26.0799C136.797 25.4701 137.088 24.5718 137.088 23.3846V16.8066H141.082Z" fill="#81818B"/>
<path d="M147.316 18.5623C147.793 17.9194 148.434 17.433 149.236 17.1033C150.055 16.7736 150.994 16.6088 152.052 16.6088V20.1697C151.608 20.1368 151.309 20.1203 151.156 20.1203C150.012 20.1203 149.116 20.4335 148.468 21.06C147.819 21.6699 147.495 22.5932 147.495 23.8296V30.111H143.501V16.8066H147.316V18.5623Z" fill="#81818B"/>
<path d="M166.513 23.5084C166.513 23.5574 166.488 23.9037 166.436 24.547H156.017C156.204 25.3712 156.648 26.0222 157.348 26.5004C158.048 26.9783 158.918 27.2174 159.959 27.2174C160.676 27.2174 161.307 27.1185 161.853 26.9206C162.417 26.7066 162.937 26.3768 163.415 25.9315L165.54 28.1571C164.243 29.5915 162.348 30.3085 159.856 30.3085C158.304 30.3085 156.93 30.0203 155.735 29.4431C154.54 28.8498 153.619 28.0334 152.97 26.9948C152.321 25.9562 151.997 24.7774 151.997 23.4587C151.997 22.1563 152.313 20.9858 152.945 19.9472C153.593 18.892 154.472 18.076 155.581 17.499C156.708 16.9055 157.962 16.6088 159.345 16.6088C160.693 16.6088 161.913 16.889 163.006 17.4495C164.098 18.01 164.951 18.8179 165.566 19.873C166.197 20.9116 166.513 22.1233 166.513 23.5084ZM159.37 19.5268C158.466 19.5268 157.706 19.774 157.092 20.2686C156.477 20.7633 156.102 21.4392 155.965 22.2965H162.75C162.613 21.4556 162.237 20.7879 161.623 20.2934C161.009 19.7823 160.258 19.5268 159.37 19.5268Z" fill="#81818B"/>
<path fill-rule="evenodd" clip-rule="evenodd" d="M18.748 3.16018C18.1395 2.82014 17.3893 2.82014 16.7808 3.16018C12.4588 5.57524 9.54371 10.0939 9.54371 15.2725C9.54371 16.0105 9.60299 16.7352 9.71702 17.4423C6.74179 16.4663 3.52028 16.8214 0.888984 18.286C0.279932 18.6251 -0.0952337 19.2526 -0.0946037 19.9317C-0.0915062 23.5141 1.83503 27.0055 5.28533 28.9297C6.97804 29.8739 8.82557 30.3225 10.6479 30.3233C10.3707 31.0824 10.2198 31.8987 10.2198 32.7493C10.2198 36.7743 13.5976 40.0366 17.7641 40.0366C21.9309 40.0366 25.3084 36.7743 25.3084 32.7493C25.3084 31.8966 25.1568 31.0786 24.8785 30.3184C26.5923 30.266 28.3184 29.8166 29.9079 28.9297C33.3586 27.0055 35.2848 23.5141 35.2874 19.9318C35.2885 19.2528 34.9131 18.6252 34.3041 18.2862C31.7767 16.8792 28.7042 16.4961 25.8291 17.3333C25.932 16.6608 25.9849 15.9727 25.9849 15.2725C25.9849 10.0939 23.0701 5.57524 18.748 3.16018ZM13.4724 15.2725C13.4724 11.9096 15.1581 8.92531 17.7644 7.06771C20.3707 8.92531 22.0564 11.9096 22.0564 15.2725C22.0564 18.6352 20.3707 21.6196 17.7644 23.4771C15.1581 21.6196 13.4724 18.6352 13.4724 15.2725ZM25.5115 21.5744C27.3256 20.5626 29.4217 20.445 31.2528 21.0851C30.9115 22.937 29.7576 24.6315 27.9436 25.6433C26.1296 26.655 24.0334 26.7725 22.2024 26.1327C22.5438 24.2806 23.6975 22.5861 25.5115 21.5744ZM3.94049 21.085C5.77148 20.4448 7.8676 20.5625 9.68163 21.5742C11.4958 22.5859 12.6493 24.2806 12.9909 26.1322C11.1598 26.7725 9.06376 26.655 7.24967 25.6433C5.43564 24.6315 4.28206 22.9368 3.94049 21.085ZM14.1485 32.7493C14.1485 30.8205 15.7673 29.2567 17.7641 29.2567C19.7609 29.2567 21.3798 30.8205 21.3798 32.7493C21.3798 34.678 19.7609 36.2419 17.7641 36.2419C15.7673 36.2419 14.1485 34.678 14.1485 32.7493Z" fill="#81818B"/>
</g>
<defs>
<clipPath id="clip0_1_129">
<rect width="167" height="79" fill="white" transform="translate(0 -18)"/>
</clipPath>
</defs>
</svg>
